PathFileType	4	(X/Y/Z)	 control3min.trc
DataRate	CameraRate	NumFrames	NumMarkers	Units	OrigDataRate	OrigDataStartFrame	OrigNumFrames
200	200	9	35	m	200	376	1000
Frame#	Time	C7			LSH			RSH			MAN			RASI			LASI			HIPR			HIPL			RPSI			LPSI			COX			RTHI1			RTHI2			RTHI3			RTHI4			RSHA1			RSHA2			RSHA3			RSHA4			RHEEL			RMET5			RMET1			RTOE			LTHI1			LTHI2			LTHI3			LTHI4			LSHA1			LSHA2			LSHA3			LSHA4			LHEEL			LMET5			LMET1			LTOE			
		X1	Y1	Z1	X2	Y2	Z2	X3	Y3	Z3	X4	Y4	Z4	X5	Y5	Z5	X6	Y6	Z6	X7	Y7	Z7	X8	Y8	Z8	X9	Y9	Z9	X10	Y10	Z10	X11	Y11	Z11	X12	Y12	Z12	X13	Y13	Z13	X14	Y14	Z14	X15	Y15	Z15	X16	Y16	Z16	X17	Y17	Z17	X18	Y18	Z18	X19	Y19	Z19	X20	Y20	Z20	X21	Y21	Z21	X22	Y22	Z22	X23	Y23	Z23	X24	Y24	Z24	X25	Y25	Z25	X26	Y26	Z26	X27	Y27	Z27	X28	Y28	Z28	X29	Y29	Z29	X30	Y30	Z30	X31	Y31	Z31	X32	Y32	Z32	X33	Y33	Z33	X34	Y34	Z34	X35	Y35	Z35	
376	1.8800	-0.263918	1.346009	-0.569632	-0.203213	1.305688	-0.746167	-0.191202	1.295426	-0.393167	-0.148473	1.289943	-0.573784	-0.110678	0.891504	-0.492105	-0.106094	0.905410	-0.679326	-0.171655	0.945975	-0.448220	-0.155544	0.955241	-0.716354	-0.261645	0.934283	-0.524639	-0.258162	0.936950	-0.639934	-0.263812	0.944924	-0.583032	-0.217388	0.684054	-0.429395	-0.195104	0.629180	-0.420037	-0.137400	0.651366	-0.401010	-0.152103	0.710839	-0.406945	-0.238145	0.290395	-0.392484	-0.256725	0.254118	-0.394945	-0.207415	0.228020	-0.382186	-0.184084	0.263770	-0.382723	-0.333762	0.089489	-0.427384	-0.186687	0.028722	-0.359568	-0.153176	0.032800	-0.439060	-0.131319	0.026493	-0.428211	-0.171428	0.699204	-0.762981	-0.156160	0.639514	-0.764447	-0.093588	0.648943	-0.748975	-0.101437	0.708134	-0.746164	-0.237341	0.269414	-0.791451	-0.250510	0.227513	-0.789911	-0.201150	0.209952	-0.776079	-0.181460	0.245537	-0.776131	-0.339014	0.095648	-0.751551	-0.186297	0.028600	-0.810285	-0.161195	0.034184	-0.734510	-0.134354	0.025371	-0.745585	
377	1.8850	-0.264666	1.351565	-0.569576	-0.204229	1.311570	-0.746027	-0.191750	1.301580	-0.393347	-0.149170	1.296017	-0.573844	-0.109709	0.897366	-0.492306	-0.105727	0.911150	-0.679456	-0.170582	0.952036	-0.448342	-0.155153	0.960943	-0.716314	-0.260605	0.940189	-0.524558	-0.257444	0.942654	-0.639742	-0.263036	0.950639	-0.582908	-0.217618	0.690378	-0.428828	-0.195918	0.635244	-0.419484	-0.137845	0.656953	-0.400900	-0.151932	0.716528	-0.406866	-0.239478	0.294170	-0.392157	-0.257604	0.257602	-0.394683	-0.208025	0.232065	-0.381734	-0.185153	0.268180	-0.382296	-0.332361	0.092645	-0.427001	-0.186337	0.028973	-0.359735	-0.153031	0.032968	-0.438842	-0.131276	0.026537	-0.428106	-0.172336	0.705003	-0.763136	-0.157394	0.645234	-0.764794	-0.094689	0.654307	-0.749619	-0.102220	0.713528	-0.746661	-0.238134	0.273437	-0.792181	-0.250781	0.231300	-0.790626	-0.201158	0.214407	-0.777004	-0.181916	0.250228	-0.777076	-0.337405	0.099239	-0.752110	-0.185904	0.028902	-0.810159	-0.160918	0.034419	-0.734797	-0.134318	0.025409	-0.745660	
378	1.8900	-0.265412	1.357179	-0.569526	-0.205217	1.317539	-0.745871	-0.192322	1.307799	-0.393539	-0.149989	1.302115	-0.573891	-0.108794	0.903287	-0.492502	-0.105395	0.917005	-0.679574	-0.169609	0.958127	-0.448436	-0.154821	0.966718	-0.716299	-0.259604	0.946162	-0.524483	-0.256746	0.948447	-0.639548	-0.262307	0.956430	-0.582806	-0.217876	0.696818	-0.428335	-0.196772	0.641419	-0.418996	-0.138366	0.662626	-0.400785	-0.151813	0.722300	-0.406793	-0.240705	0.298036	-0.391746	-0.258338	0.261244	-0.394297	-0.208503	0.236253	-0.381225	-0.186133	0.272730	-0.381808	-0.330791	0.095903	-0.426579	-0.185952	0.029256	-0.359906	-0.152869	0.033177	-0.438588	-0.131224	0.026591	-0.427980	-0.173249	0.710901	-0.763292	-0.158627	0.651057	-0.765129	-0.095792	0.659782	-0.750270	-0.103007	0.719033	-0.747177	-0.238911	0.277544	-0.792817	-0.250999	0.235160	-0.791277	-0.201093	0.218981	-0.777921	-0.182330	0.255053	-0.777996	-0.335623	0.102909	-0.752538	-0.185480	0.029247	-0.809981	-0.160600	0.034678	-0.735087	-0.134270	0.025453	-0.745751	
379	1.8950	-0.266154	1.362810	-0.569481	-0.206180	1.323555	-0.745697	-0.192894	1.314049	-0.393745	-0.150917	1.308198	-0.573926	-0.107936	0.909226	-0.492696	-0.105090	0.922932	-0.679679	-0.168719	0.964208	-0.448507	-0.154537	0.972555	-0.716293	-0.258638	0.952160	-0.524410	-0.256066	0.954304	-0.639349	-0.261635	0.962265	-0.582715	-0.218158	0.703326	-0.427920	-0.197664	0.647667	-0.418552	-0.138954	0.668338	-0.400654	-0.151747	0.728126	-0.406724	-0.241839	0.301947	-0.391264	-0.258953	0.264965	-0.393814	-0.208861	0.240536	-0.380660	-0.187009	0.277364	-0.381240	-0.329085	0.099268	-0.426159	-0.185529	0.029566	-0.360086	-0.152690	0.033432	-0.438301	-0.131160	0.026655	-0.427834	-0.174165	0.716861	-0.763439	-0.159864	0.656945	-0.765443	-0.096894	0.665322	-0.750929	-0.103793	0.724603	-0.747708	-0.239651	0.281709	-0.793375	-0.251155	0.239053	-0.791868	-0.200945	0.223631	-0.778817	-0.182698	0.259970	-0.778884	-0.333680	0.106637	-0.752838	-0.185022	0.029640	-0.809755	-0.160242	0.034957	-0.735375	-0.134209	0.025505	-0.745856	
380	1.9000	-0.266885	1.368418	-0.569438	-0.207119	1.329580	-0.745506	-0.193458	1.320295	-0.393962	-0.151851	1.314237	-0.573967	-0.107135	0.915152	-0.492888	-0.104809	0.928883	-0.679763	-0.167952	0.970236	-0.448566	-0.154283	0.978435	-0.716277	-0.257703	0.958144	-0.524337	-0.255399	0.960191	-0.639141	-0.260999	0.968102	-0.582611	-0.218460	0.709860	-0.427582	-0.198585	0.653948	-0.418156	-0.139603	0.674049	-0.400499	-0.151727	0.733956	-0.406662	-0.242901	0.305861	-0.390740	-0.259470	0.268701	-0.393271	-0.209099	0.244879	-0.380047	-0.187795	0.282058	-0.380594	-0.327255	0.102713	-0.425706	-0.185078	0.029896	-0.360271	-0.152488	0.033730	-0.437983	-0.131083	0.026729	-0.427668	-0.175081	0.722852	-0.763571	-0.161109	0.662867	-0.765738	-0.098001	0.670891	-0.751594	-0.104576	0.730199	-0.748253	-0.240353	0.285867	-0.793845	-0.251241	0.242936	-0.792399	-0.200720	0.228329	-0.779691	-0.183017	0.264931	-0.779734	-0.331587	0.110395	-0.753020	-0.184527	0.030085	-0.809486	-0.159845	0.035252	-0.735658	-0.134136	0.025564	-0.745972	
381	1.9050	-0.267596	1.373968	-0.569398	-0.208023	1.335572	-0.745296	-0.194014	1.326487	-0.394189	-0.152778	1.320213	-0.574017	-0.106400	0.921009	-0.493081	-0.104544	0.934809	-0.679817	-0.167292	0.976179	-0.448621	-0.154051	0.984326	-0.716230	-0.256810	0.964080	-0.524249	-0.254745	0.966073	-0.638916	-0.260391	0.973917	-0.582493	-0.218778	0.716379	-0.427308	-0.199526	0.660246	-0.417789	-0.140295	0.679721	-0.400313	-0.151750	0.739761	-0.406606	-0.243902	0.309737	-0.390186	-0.259898	0.272409	-0.392697	-0.209240	0.249256	-0.379377	-0.188497	0.286765	-0.379890	-0.325292	0.106204	-0.425206	-0.184605	0.030239	-0.360463	-0.152259	0.034067	-0.437640	-0.130991	0.026813	-0.427483	-0.175997	0.728842	-0.763691	-0.162363	0.668790	-0.766019	-0.099115	0.676450	-0.752266	-0.105358	0.735787	-0.748808	-0.241024	0.289977	-0.794237	-0.251254	0.246809	-0.792870	-0.200418	0.233032	-0.780529	-0.183294	0.269901	-0.780537	-0.329354	0.114155	-0.753094	-0.183993	0.030586	-0.809176	-0.159401	0.035567	-0.735935	-0.134046	0.025633	-0.746097	
382	1.9100	-0.268283	1.379425	-0.569362	-0.208895	1.341495	-0.745068	-0.194562	1.332604	-0.394441	-0.153506	1.326139	-0.574094	-0.105724	0.926760	-0.493272	-0.104287	0.940666	-0.679837	-0.166716	0.982013	-0.448678	-0.153823	0.990204	-0.716143	-0.255954	0.969939	-0.524152	-0.254101	0.971909	-0.638673	-0.259818	0.979680	-0.582371	-0.219108	0.722838	-0.427095	-0.200473	0.666519	-0.417457	-0.141030	0.685345	-0.400107	-0.151805	0.745507	-0.406554	-0.244835	0.313575	-0.389616	-0.260261	0.276048	-0.392108	-0.209303	0.253612	-0.378658	-0.189134	0.291448	-0.379141	-0.323210	0.109727	-0.424605	-0.184109	0.030597	-0.360668	-0.151994	0.034434	-0.437280	-0.130882	0.026907	-0.427278	-0.176910	0.734796	-0.763799	-0.163629	0.674684	-0.766292	-0.100239	0.681965	-0.752943	-0.106140	0.741331	-0.749368	-0.241647	0.294037	-0.794570	-0.251204	0.250644	-0.793284	-0.200058	0.237717	-0.781327	-0.183538	0.274842	-0.781280	-0.326996	0.117895	-0.753071	-0.183418	0.031149	-0.808830	-0.158916	0.035899	-0.736195	-0.133938	0.025710	-0.746224	
383	1.9150	-0.268942	1.384758	-0.569326	-0.209744	1.347312	-0.744827	-0.195099	1.338616	-0.394719	-0.154009	1.331993	-0.574202	-0.105116	0.932359	-0.493457	-0.104033	0.946411	-0.679815	-0.166204	0.987713	-0.448746	-0.153582	0.996035	-0.716018	-0.255132	0.975687	-0.524053	-0.253468	0.977664	-0.638417	-0.259225	0.985341	-0.582205	-0.219448	0.729193	-0.426930	-0.201436	0.672703	-0.417143	-0.141784	0.690886	-0.399870	-0.151893	0.751161	-0.406501	-0.245719	0.317354	-0.389035	-0.260555	0.279612	-0.391477	-0.209309	0.257929	-0.377893	-0.189715	0.296083	-0.378366	-0.321045	0.113305	-0.423937	-0.183588	0.030973	-0.360886	-0.151688	0.034830	-0.436914	-0.130754	0.027016	-0.427054	-0.177820	0.740691	-0.763896	-0.164905	0.680520	-0.766566	-0.101377	0.687406	-0.753622	-0.106922	0.746799	-0.749925	-0.242234	0.298004	-0.794850	-0.251097	0.254415	-0.793646	-0.199651	0.242344	-0.782069	-0.183759	0.279717	-0.781976	-0.324553	0.121632	-0.752972	-0.182796	0.031779	-0.808450	-0.158386	0.036255	-0.736430	-0.133805	0.025797	-0.746349	
384	1.9200	-0.269568	1.389941	-0.569291	-0.210564	1.352993	-0.744577	-0.195625	1.344484	-0.395050	-0.154288	1.337729	-0.574339	-0.104577	0.937778	-0.493636	-0.103780	0.952008	-0.679745	-0.165738	0.993266	-0.448828	-0.153313	1.001779	-0.715853	-0.254348	0.981296	-0.523944	-0.252846	0.983301	-0.638151	-0.258621	0.990876	-0.582010	-0.219793	0.735414	-0.426807	-0.202399	0.678768	-0.416868	-0.142551	0.696313	-0.399614	-0.152009	0.756694	-0.406448	-0.246564	0.321021	-0.388487	-0.260796	0.283069	-0.390847	-0.209277	0.262182	-0.377093	-0.190260	0.300646	-0.377595	-0.318780	0.116879	-0.423186	-0.183047	0.031370	-0.361113	-0.151332	0.035257	-0.436546	-0.130601	0.027140	-0.426814	-0.178720	0.746500	-0.763987	-0.166182	0.686266	-0.766851	-0.102527	0.692746	-0.754300	-0.107699	0.752163	-0.750471	-0.242793	0.301839	-0.795075	-0.250946	0.258103	-0.793953	-0.199217	0.246888	-0.782754	-0.183951	0.284503	-0.782634	-0.322035	0.125339	-0.752796	-0.182128	0.032485	-0.808040	-0.157801	0.036644	-0.736636	-0.133634	0.025897	-0.746464	
